<?xml version="1.0" encoding="utf-8"?>
<svg width="40" height="40" viewBox="0 0 40 40" fill="none" xmlns="http://www.w3.org/2000/svg">
  <g>
    <rect width="40" height="40" />
    <path id="Vector" d="M0.432998 12.7007L10.3928 22.563C10.5328 22.7016 10.6945 22.8088 10.8781 22.8846C11.0618 22.9603 11.2532 22.9988 11.4525 23C11.6518 23.0014 11.8438 22.9656 12.0285 22.8922C12.2132 22.8189 12.3764 22.714 12.5184 22.5771C12.8138 22.2922 12.963 21.9472 12.9658 21.5417C12.9687 21.1362 12.8243 20.7893 12.5329 20.5009L11.4628 19.4414L5.17275 13.2128L28.497 13.2128C28.912 13.2125 29.2663 13.0692 29.5598 12.7827C29.8533 12.4959 30 12.1499 30 11.7447C30 11.3392 29.8533 10.993 29.5598 10.7062C29.2663 10.4197 28.912 10.2766 28.497 10.2766L4.93983 10.2766L11.4628 3.59542L12.5506 2.48121C12.6881 2.34023 12.7928 2.17895 12.8647 1.99735C12.9366 1.81599 12.9702 1.62794 12.9654 1.4332C12.9607 1.23845 12.918 1.05208 12.8374 0.874062C12.7568 0.696046 12.6443 0.539776 12.5001 0.405726C12.1997 0.125921 11.8421 -0.00908375 11.4272 0.000473976C11.0122 0.0100317 10.6615 0.161524 10.3751 0.454949L0.415308 10.6565C0.135038 10.9435 -0.00337744 11.2854 6.24657e-05 11.6821C0.00350285 12.0787 0.147804 12.4183 0.432998 12.7007L0.432998 12.7007Z" fill="currentColor" fill-rule="evenodd" transform="translate(5 9)" />
  </g>
</svg>