<?xml version="1.0" encoding="utf-8"?>
<svg width="40" height="40" viewBox="0 0 40 40" fill="none" xmlns="http://www.w3.org/2000/svg">
  <g>
    <rect width="40" height="40" />
    <path id="Vector" d="M17.1515 0C16.5992 0 16.1515 0.447754 16.1515 1L16.1515 3C16.1515 3.55225 16.5992 4 17.1515 4L19.1515 4C19.7039 4 20.1515 3.55225 20.1515 3L20.1515 1C20.1515 0.447754 19.7039 0 19.1515 0L17.1515 0L17.1515 0ZM1.15154 9C-1.47662 9.89697 1.21619 11.9966 1.21619 11.9966L15.1516 11.9966C15.1516 11.9966 16.394 10.9839 17.1515 10C19.4641 6.73584 16.1515 7 16.1515 7C16.1515 7 13.0466 7.6626 12.1515 7C11.2565 6.3374 11.1515 6 11.1515 6C11.1515 6 10.3098 3.49023 9.65157 3C6.22346 0.10498 6.15156 4 6.15156 4C6.15156 4 6.26578 6.14453 6.15156 8C6.03734 9.85547 5.15156 9 5.15156 9C5.15156 9 3.77971 8.10303 1.15154 9L1.15154 9ZM24.226 6.81592C23.9055 6.1582 23.0233 4.34863 22.1515 7C21.1679 9.9917 21.1515 10.5 21.1515 10.5C21.1515 10.5 20.4859 12.7227 23.1515 12C23.8233 11.8159 24.6696 11.4009 25.6516 11C26.8184 10.5234 26.7122 9.62402 26.1516 9C25.591 8.37598 24.5088 7.3042 24.3204 7C24.299 6.96533 24.2671 6.8999 24.226 6.81592L24.226 6.81592ZM2.1785 15.0483L26.1515 15.0483L26.1515 27C26.1515 27 26.1775 32.9541 20.1515 33C14.1256 33.0459 8.15154 33 8.15154 33C8.15154 33 2.11558 32.9629 2.15154 27C2.1875 21.0371 2.1785 15.0483 2.1785 15.0483L2.1785 15.0483ZM17.1515 17L11.1515 17C10.5992 17 10.1515 17.4478 10.1515 18L10.1515 20C10.1515 20.5522 10.5992 21 11.1515 21L17.1515 21C17.7039 21 18.1515 20.5522 18.1515 20L18.1515 18C18.1515 17.4478 17.7039 17 17.1515 17L17.1515 17Z" fill="currentColor" fill-rule="evenodd" transform="translate(7 4)" />
  </g>
</svg>