<?xml version="1.0" encoding="utf-8"?>
<svg width="40" height="40" viewBox="0 0 40 40" fill="none" xmlns="http://www.w3.org/2000/svg">
  <g>
    <rect width="40" height="40" />
    <path id="Vector" d="M14.8965 25.6034L14.8965 14.8966L25.6034 14.8966C25.9891 14.8961 26.3182 14.7597 26.5909 14.4869C26.8636 14.2146 27 13.8855 27 13.5C27 13.114 26.8636 12.7849 26.5909 12.5121C26.3182 12.2398 25.9891 12.1034 25.6034 12.1034L14.8965 12.1034L14.8965 1.39655C14.8965 1.01059 14.7602 0.681456 14.4875 0.408691C14.2148 0.136382 13.8856 0 13.5 0C13.1143 0 12.7852 0.136382 12.5125 0.408691C12.2398 0.681456 12.1034 1.01059 12.1034 1.39655L12.1034 12.1034L1.39655 12.1034C1.0109 12.1034 0.681711 12.2398 0.409032 12.5121C0.136353 12.7849 0 13.114 0 13.5C0 13.8855 0.136353 14.2146 0.409032 14.4874C0.681711 14.7597 1.0109 14.8961 1.39655 14.8966L12.1034 14.8966L12.1034 25.6034C12.1034 25.989 12.2398 26.3181 12.5125 26.5909C12.7852 26.8632 13.1143 26.9995 13.5 27C13.8856 26.9995 14.2148 26.8632 14.4875 26.5904C14.7602 26.3181 14.8965 25.989 14.8965 25.6034L14.8965 25.6034Z" fill="#A6A6AD" fill-rule="evenodd" transform="translate(7 7)" />
  </g>
</svg>