<?xml version="1.0" encoding="utf-8"?>
<svg width="40" height="40" viewBox="0 0 40 40" fill="none" xmlns="http://www.w3.org/2000/svg">
  <g>
    <rect width="40" height="40" />
    <path id="Vector" d="M12.4906 10.6423L11.4191 11.6653C11.1418 11.9302 11.0021 12.251 11 12.6277C10.998 13.0042 11.1342 13.3262 11.4087 13.594C11.5404 13.7224 11.6927 13.8218 11.8654 13.8918C12.0382 13.9619 12.2182 13.9973 12.4056 13.9983C12.593 13.9993 12.7734 13.9656 12.9469 13.8972C13.1204 13.8289 13.2738 13.731 13.4069 13.604L19.4977 7.78735C19.7751 7.52246 19.9147 7.2019 19.9168 6.8252C19.9188 6.44873 19.7826 6.12646 19.5081 5.85889L19.503 5.854L13.8508 0.399414C13.5749 0.133057 13.2418 0 12.8516 0C12.4614 0 12.1284 0.133057 11.8524 0.399414C11.7199 0.5271 11.6178 0.674561 11.5461 0.841553C11.4744 1.00854 11.4385 1.18262 11.4385 1.36328C11.4385 1.54419 11.4744 1.71802 11.5461 1.88525C11.6178 2.05225 11.7199 2.19971 11.8524 2.32764L12.7793 3.22217L14.9845 5.3501L13 5.3501C10.4289 5.3501 7.91543 6.11255 5.77758 7.54102C3.63974 8.96948 1.97351 10.9998 0.989559 13.3752C0.00564194 15.7507 -0.251804 18.3645 0.249783 20.8862C0.7514 23.408 1.98953 25.7244 3.80761 27.5425C5.6257 29.3606 7.94207 30.5986 10.4638 31.1003C12.9856 31.6018 15.5995 31.3445 17.9749 30.3606C20.3503 29.3767 22.3806 27.7104 23.8091 25.5725C24.9784 23.8225 25.7014 21.8208 25.9253 19.7419C26.0077 18.9763 25.3757 18.3501 24.6055 18.3501L24.4045 18.3501C23.6344 18.3501 23.02 18.9773 22.913 19.7402C22.7046 21.2266 22.1635 22.6533 21.323 23.9114C20.2231 25.5574 18.6598 26.8406 16.8307 27.5981C15.0016 28.3557 12.9889 28.554 11.0471 28.1677C9.1054 27.7815 7.3218 26.8281 5.92187 25.4282C4.52194 24.0283 3.56857 22.2446 3.18234 20.303C2.79611 18.3611 2.99435 16.3486 3.75198 14.5195C4.50961 12.6904 5.7926 11.127 7.43875 10.0271C9.0849 8.92725 11.0202 8.34009 13 8.34009L14.8945 8.34644L12.4906 10.6423L12.4906 10.6423Z" fill="#A6A6AD" fill-rule="evenodd" transform="translate(7 4.65)" />
  </g>
</svg>