<?xml version="1.0" encoding="utf-8"?>
<svg width="40" height="40" viewBox="0 0 40 40" fill="none" xmlns="http://www.w3.org/2000/svg">
  <g>
    <rect width="40" height="40" />
    <path id="Vector" d="M34 3.86207C34 1.72879 32.3546 0 30.3243 0L3.67568 0C1.64538 0 0 1.72879 0 3.86207L0 24.1379C0 26.2712 1.64538 28 3.67568 28L30.3243 28C32.3546 28 34 26.2712 34 24.1379L34 3.86207L34 3.86207ZM11.4865 2.89648L11.4865 25.1034L3.67568 25.1034C3.06306 25.1034 2.75676 24.7816 2.75676 24.1379L2.75676 3.862C2.75676 3.21824 3.06306 2.89648 3.67568 2.89648L11.4865 2.89648L11.4865 2.89648ZM30.3243 25.1034L14.2432 25.1034L14.2432 2.89648L30.3243 2.89648C30.9369 2.89648 31.2432 3.21824 31.2432 3.862L31.2432 24.1379C31.2432 24.7816 30.9369 25.1034 30.3243 25.1034L30.3243 25.1034ZM9.18919 6.75854C9.69676 6.75854 10.1081 7.19086 10.1081 7.72406C10.1081 8.25727 9.69676 8.68958 9.18919 8.68958L5.51351 8.68958C5.00594 8.68958 4.59459 8.25727 4.59459 7.72406C4.59459 7.19086 5.00594 6.75854 5.51351 6.75854L9.18919 6.75854L9.18919 6.75854ZM10.1081 11.5861C10.1081 11.0529 9.69676 10.6206 9.18919 10.6206L5.51351 10.6206C5.00594 10.6206 4.59459 11.0529 4.59459 11.5861C4.59459 12.1193 5.00594 12.5516 5.51351 12.5516L9.18919 12.5516C9.69676 12.5516 10.1081 12.1193 10.1081 11.5861L10.1081 11.5861ZM10.1081 15.4482C10.1081 14.915 9.69676 14.4827 9.18919 14.4827L5.51351 14.4827C5.00594 14.4827 4.59459 14.915 4.59459 15.4482C4.59459 15.9814 5.00594 16.4137 5.51351 16.4137L9.18919 16.4137C9.69676 16.4137 10.1081 15.9814 10.1081 15.4482L10.1081 15.4482Z" fill="currentColor" fill-rule="evenodd" transform="translate(3 6)" />
  </g>
</svg>